<svg width="33" height="32" viewBox="0 0 33 32" fill="none" xmlns="http://www.w3.org/2000/svg">
<path fill-rule="evenodd" clip-rule="evenodd" d="M16.4998 0.312475C12.6568 0.312992 8.93925 1.68076 6.01227 4.17111C3.0853 6.66145 1.1398 10.1119 0.523794 13.9053C-0.0922091 17.6986 0.661468 21.5874 2.65001 24.876C4.63854 28.1646 7.73222 30.6384 11.3776 31.855C12.187 32.0053 12.5339 31.5081 12.5339 31.0803V28.3284C8.03606 29.2997 7.08794 26.1547 7.08794 26.1547C6.77259 25.1631 6.10667 24.3204 5.21481 23.7843C3.74637 22.79 5.33044 22.8015 5.33044 22.8015C5.84335 22.874 6.33293 23.0627 6.76177 23.3533C7.19061 23.6439 7.54737 24.0286 7.80481 24.4781C8.25268 25.2814 9.00122 25.8739 9.88587 26.1254C10.7705 26.377 11.7188 26.2669 12.5223 25.8193C12.5876 24.999 12.9493 24.2304 13.5398 23.6572C9.95544 23.2409 6.1745 21.8534 6.1745 15.6559C6.14828 14.0463 6.74479 12.4887 7.8395 11.3084C7.344 9.9142 7.40193 8.38307 8.00137 7.03029C8.00137 7.03029 9.35419 6.59091 12.4529 8.68372C15.1025 7.96101 17.8972 7.96101 20.5467 8.68372C23.6339 6.59091 24.9867 7.03029 24.9867 7.03029C25.5861 8.38307 25.6441 9.9142 25.1486 11.3084C26.2433 12.4887 26.8398 14.0463 26.8136 15.6559C26.8136 21.8765 23.0326 23.2409 19.4251 23.6456C19.8116 24.0373 20.1096 24.5073 20.299 25.0238C20.4885 25.5404 20.5651 26.0916 20.5236 26.6403V31.0803C20.5236 31.6122 20.8126 32.0169 21.6798 31.855C25.33 30.6369 28.4269 28.1583 30.4151 24.8637C32.4033 21.569 33.1529 17.6739 32.5293 13.8767C31.9057 10.0795 29.9498 6.62858 27.0123 4.14286C24.0748 1.65715 20.3479 0.299181 16.4998 0.312475Z" fill="#2A77BD"/>
</svg>
