<svg width="33" height="32" viewBox="0 0 33 32" fill="none" xmlns="http://www.w3.org/2000/svg">
<path fill-rule="evenodd" clip-rule="evenodd" d="M16.5001 0.312475C12.657 0.312992 8.93949 1.68076 6.01252 4.17111C3.08554 6.66145 1.14004 10.1119 0.524039 13.9053C-0.0919649 17.6986 0.661712 21.5874 2.65025 24.876C4.63879 28.1646 7.73246 30.6384 11.3779 31.855C12.1872 32.0053 12.5341 31.5081 12.5341 31.0803V28.3284C8.0363 29.2997 7.08818 26.1547 7.08818 26.1547C6.77284 25.1631 6.10691 24.3204 5.21505 23.7843C3.74662 22.79 5.33068 22.8015 5.33068 22.8015C5.8436 22.874 6.33317 23.0627 6.76201 23.3533C7.19085 23.6439 7.54762 24.0286 7.80505 24.4781C8.25292 25.2814 9.00147 25.8739 9.88611 26.1254C10.7708 26.377 11.7191 26.2669 12.5226 25.8193C12.5878 24.999 12.9495 24.2304 13.5401 23.6572C9.95568 23.2409 6.17474 21.8534 6.17474 15.6559C6.14853 14.0463 6.74503 12.4887 7.83974 11.3084C7.34424 9.9142 7.40218 8.38307 8.00162 7.03029C8.00162 7.03029 9.35443 6.59091 12.4532 8.68372C15.1027 7.96101 17.8974 7.96101 20.5469 8.68372C23.6341 6.59091 24.9869 7.03029 24.9869 7.03029C25.5864 8.38307 25.6443 9.9142 25.1488 11.3084C26.2435 12.4887 26.84 14.0463 26.8138 15.6559C26.8138 21.8765 23.0329 23.2409 19.4254 23.6456C19.8118 24.0373 20.1098 24.5073 20.2993 25.0238C20.4888 25.5404 20.5653 26.0916 20.5238 26.6403V31.0803C20.5238 31.6122 20.8129 32.0169 21.6801 31.855C25.3302 30.6369 28.4271 28.1583 30.4154 24.8637C32.4036 21.569 33.1531 17.6739 32.5295 13.8767C31.9059 10.0795 29.95 6.62858 27.0125 4.14286C24.075 1.65715 20.3481 0.299181 16.5001 0.312475Z" fill="white"/>
</svg>
