<svg width="39" height="29" viewBox="0 0 39 29" fill="none" xmlns="http://www.w3.org/2000/svg">
<path d="M32.1188 1.14375L29.7188 3.01875L19.5 10.6125L9.28128 2.94375L6.88128 1.06875C6.31589 0.601018 5.62569 0.309446 4.8962 0.230152C4.16671 0.150859 3.42998 0.287328 2.7773 0.622654C2.12461 0.957979 1.58464 1.47742 1.22429 2.11663C0.863944 2.75585 0.699047 3.48673 0.750031 4.21875V25.95C0.750031 26.6263 1.01869 27.2749 1.49691 27.7531C1.97513 28.2313 2.62373 28.5 3.30003 28.5H9.28128V14.025L19.5 21.6937L29.7188 14.025V28.5H35.7C36.3763 28.5 37.0249 28.2313 37.5032 27.7531C37.9814 27.2749 38.25 26.6263 38.25 25.95V4.21875C38.2852 3.49305 38.1089 2.77275 37.7424 2.14541C37.3759 1.51807 36.835 1.01071 36.1856 0.684991C35.5361 0.359274 34.8061 0.229232 34.0841 0.310674C33.3621 0.392116 32.6793 0.681533 32.1188 1.14375Z" fill="white"/>
</svg>
