<svg width="38" height="29" viewBox="0 0 38 29" fill="none" xmlns="http://www.w3.org/2000/svg">
<g clip-path="url(#clip0_229_47)">
<path d="M8.63639 28.8572V13.9951L4.08307 9.7784L0 7.43842V26.2345C0 27.6857 1.16152 28.8572 2.59098 28.8572H8.63639Z" fill="#4285F4"/>
<path d="M29.3638 28.8573H35.4092C36.8429 28.8573 38.0002 27.6813 38.0002 26.2345V7.4386L33.3754 10.1188L29.3638 13.9952V28.8573Z" fill="#34A853"/>
<path d="M8.63618 13.9951L8.0166 8.18806L8.63618 2.63013L18.9998 10.4983L29.3634 2.63013L30.0565 7.88799L29.3634 13.9951L18.9998 21.8633L8.63618 13.9951Z" fill="#EA4335"/>
<path d="M29.3638 2.63015V13.9951L38.0002 7.43844V3.94146C38.0002 0.698118 34.3427 -1.15082 31.7821 0.794284L29.3638 2.63015Z" fill="#FBBC04"/>
<path d="M0 7.43845L3.97204 10.4541L8.63639 13.9952V2.63016L6.21805 0.794292C3.65305 -1.15096 0 0.698126 0 3.94132V7.43845Z" fill="#C5221F"/>
</g>
<defs>
<clipPath id="clip0_229_47">
<rect width="38" height="29" fill="white"/>
</clipPath>
</defs>
</svg>
