<svg width="38" height="29" viewBox="0 0 38 29" fill="none" xmlns="http://www.w3.org/2000/svg">
<path d="M31.3778 0.935555L28.9778 2.81055L18.7591 10.4043L8.54031 2.73556L6.14031 0.860555C5.57492 0.392827 4.88472 0.101255 4.15523 0.0219616C3.42574 -0.0573321 2.68902 0.0791374 2.03633 0.414463C1.38364 0.749788 0.843677 1.26923 0.483327 1.90844C0.122978 2.54766 -0.0419196 3.27854 0.00906448 4.01056V25.7418C0.00906448 26.4181 0.277724 27.0667 0.755942 27.5449C1.23416 28.0231 1.88276 28.2918 2.55906 28.2918H8.54031V13.8168L18.7591 21.4856L28.9778 13.8168V28.2918H34.9591C35.6354 28.2918 36.284 28.0231 36.7622 27.5449C37.2404 27.0667 37.5091 26.4181 37.5091 25.7418V4.01056C37.5443 3.28486 37.3679 2.56456 37.0014 1.93722C36.6349 1.30988 36.0941 0.802517 35.4446 0.4768C34.7952 0.151083 34.0651 0.0210415 33.3431 0.102483C32.6212 0.183925 31.9384 0.473342 31.3778 0.935555Z" fill="#2A77BD"/>
</svg>
