<svg width="38" height="30" viewBox="0 0 38 30" fill="none" xmlns="http://www.w3.org/2000/svg">
<path d="M31.4789 1.77168L29.0789 3.64668L18.8601 11.2404L8.64139 3.57168L6.24139 1.69668C5.67599 1.22895 4.98579 0.937376 4.2563 0.858082C3.52681 0.778788 2.79009 0.915258 2.1374 1.25058C1.48472 1.58591 0.944751 2.10535 0.584402 2.74456C0.224052 3.38378 0.0591547 4.11466 0.110139 4.84668V26.5779C0.110139 27.2542 0.378799 27.9028 0.857016 28.381C1.33523 28.8593 1.98384 29.1279 2.66014 29.1279H8.64139V14.6529L18.8601 22.3217L29.0789 14.6529V29.1279H35.0601C35.7364 29.1279 36.385 28.8593 36.8633 28.381C37.3415 27.9028 37.6101 27.2542 37.6101 26.5779V4.84668C37.6453 4.12098 37.469 3.40068 37.1025 2.77334C36.736 2.146 36.1951 1.63864 35.5457 1.31292C34.8962 0.987203 34.1662 0.857162 33.4442 0.938604C32.7222 1.02005 32.0395 1.30946 31.4789 1.77168Z" fill="white"/>
</svg>
