<svg width="71" height="54" viewBox="0 0 71 54" fill="none" xmlns="http://www.w3.org/2000/svg">
<path d="M58.7745 2.70959L54.3479 6.16792L35.5 20.1742L16.652 6.02959L12.2254 2.57125C11.1825 1.70856 9.9095 1.17077 8.56399 1.02452C7.21849 0.878263 5.85964 1.12997 4.6558 1.74846C3.45196 2.36695 2.45602 3.32504 1.79137 4.50403C1.12673 5.68302 0.822584 7.0311 0.916621 8.38126V48.4633C0.916621 49.7107 1.41215 50.907 2.2942 51.7891C3.17624 52.6711 4.37255 53.1667 5.61995 53.1667H16.652V26.4683L35.5 40.6129L54.3479 26.4683V53.1667H65.38C66.6274 53.1667 67.8237 52.6711 68.7057 51.7891C69.5878 50.907 70.0833 49.7107 70.0833 48.4633V8.38126C70.1482 7.04275 69.8229 5.7142 69.1469 4.55711C68.471 3.40001 67.4734 2.46421 66.2755 1.86344C65.0777 1.26267 63.7311 1.02282 62.3994 1.17303C61.0678 1.32325 59.8085 1.85706 58.7745 2.70959Z" fill="#E6E6E6"/>
</svg>
